<svg xmlns="http://www.w3.org/2000/svg" version="1.1" xmlnsXlink="http://www.w3.org/1999/xlink" xmlns:svgjs="http://svgjs.dev/svgjs" width="1000" height="228" viewBox="0 0 1000 228"><g transform="matrix(1,0,0,1,-8.116789663268037,-8.696084673179513)"><svg viewBox="0 0 399 91" data-background-color="#ffffff" preserveAspectRatio="xMidYMid meet" height="228" width="1000" xmlns="http://www.w3.org/2000/svg" xmlnsXlink="http://www.w3.org/1999/xlink"><defs></defs><g id="tight-bounds" transform="matrix(1,0,0,1,3.238599075643947,3.470805724821645)"><svg viewBox="0 0 395.52 78.5023092364365" height="78.5023092364365" width="395.52"><g><svg viewBox="0 0 570.26441516508 113.1853596931248" height="78.5023092364365" width="395.52"><g><rect width="9.524905166084155" height="113.1853596931248" x="140.285203281498" y="0" fill="#fce44d" opacity="1" stroke-width="0" stroke="transparent" fill-opacity="1" class="rect-o-0" data-fill-palette-color="primary" rx="1%" id="o-0" data-palette-color="#fce44d"></rect></g><g transform="matrix(1,0,0,1,174.74441516507994,0.28155562112716837)"><svg viewBox="0 0 395.52 112.62224845087046" height="112.62224845087046" width="395.52"><g><svg viewBox="0 0 395.52 112.62224845087046" height="112.62224845087046" width="395.52"><g><svg viewBox="0 0 395.52 112.62224845087046" height="112.62224845087046" width="395.52"><g transform="matrix(1,0,0,1,0,0)"><svg width="395.52" viewBox="1.700000286102295 -40.69999694824219 169.4499969482422 45.25" height="112.62224845087046" data-palette-color="#fce44d"><svg></svg><g class="undefined-text-0" data-fill-palette-color="primary" id="text-0"><path d="M12.05-11.5v0c1.167-1.4 1.75-2.583 1.75-3.55 0-0.967-0.4-1.45-1.2-1.45v0c-1.567 0-3.35 1.433-5.35 4.3v0c-0.633 0.9-1.25 2.083-1.85 3.55-0.6 1.467-0.9 2.793-0.9 3.98 0 1.18 0.243 2.137 0.73 2.87 0.48 0.733 1.23 1.1 2.25 1.1 1.013 0 1.953-0.243 2.82-0.73 0.867-0.48 1.693-1.247 2.48-2.3 0.78-1.047 1.37-1.92 1.77-2.62 0.4-0.7 0.95-1.75 1.65-3.15v0c0.233-0.467 0.433-0.66 0.6-0.58 0.167 0.087 0.25 0.203 0.25 0.35 0 0.153-0.223 0.703-0.67 1.65-0.453 0.953-0.903 1.847-1.35 2.68-0.453 0.833-1.097 1.767-1.93 2.8v0c-1.5 1.867-3.55 2.8-6.15 2.8v0c-1.867 0-3.207-0.46-4.02-1.38-0.82-0.913-1.23-1.97-1.23-3.17v0c0-1.467 0.36-3.067 1.08-4.8 0.713-1.733 1.537-3.233 2.47-4.5v0c1.933-2.633 4.167-3.95 6.7-3.95v0c1.233 0 2.127 0.29 2.68 0.87 0.547 0.587 0.82 1.263 0.82 2.03v0c0 1.133-0.467 2.1-1.4 2.9v0c-0.467 0.433-0.857 0.65-1.17 0.65-0.32 0-0.597-0.117-0.83-0.35zM24.75-2.25v0c0 0.933 0.333 1.4 1 1.4v0c1.567 0 3.783-2.933 6.65-8.8v0c0.233-0.467 0.443-0.65 0.63-0.55 0.18 0.1 0.27 0.233 0.27 0.4 0 0.167-0.19 0.64-0.57 1.42-0.387 0.787-0.773 1.537-1.16 2.25-0.38 0.72-0.937 1.663-1.67 2.83v0c-1.533 2.333-3.167 3.5-4.9 3.5v0c-1.133 0-2.033-0.467-2.7-1.4v0c-0.3-0.433-0.45-1.027-0.45-1.78 0-0.747 0.167-1.653 0.5-2.72 0.333-1.067 1.25-2.8 2.75-5.2v0c0.367-0.6 0.55-1.077 0.55-1.43 0-0.347-0.283-0.52-0.85-0.52-0.567 0-1.65 0.75-3.25 2.25v0c-2.4 2.2-4.733 5.5-7 9.9v0c-0.233 0.5-0.85 0.75-1.85 0.75v0c-0.9 0.067-1.467 0.167-1.7 0.3v0c6.333-13.167 10.917-22.35 13.75-27.55v0c0.633-1.167 1.193-1.983 1.68-2.45 0.48-0.467 1.053-0.7 1.72-0.7v0c0.167 0 0.517 0.04 1.05 0.12 0.533 0.087 0.933 0.113 1.2 0.08v0c-1 1.033-2.793 3.89-5.38 8.57-2.58 4.687-5.053 9.447-7.42 14.28v0c1.567-1.967 2.977-3.5 4.23-4.6 1.247-1.1 2.77-2.143 4.57-3.13 1.8-0.98 3.117-1.47 3.95-1.47v0c0.2 0 0.383 0.033 0.55 0.1v0c-4.1 7.2-6.15 11.917-6.15 14.15zM41.55-17.5v0c2.433 0 3.65 1.533 3.65 4.6v0c0 1.4-0.367 2.9-1.1 4.5v0c-0.933 2.167-2.333 4.133-4.2 5.9v0c0.433 0.833 1.217 1.25 2.35 1.25v0c0.9 0 1.75-0.45 2.55-1.35v0c1-1.033 1.717-1.943 2.15-2.73 0.433-0.78 0.75-1.353 0.95-1.72 0.2-0.367 0.457-0.893 0.77-1.58 0.32-0.68 0.513-1.097 0.58-1.25 0.067-0.147 0.183-0.22 0.35-0.22v0c0.333-0.033 0.5 0.083 0.5 0.35v0c0 0.1-0.033 0.217-0.1 0.35v0l-0.3 0.7c-0.2 0.467-0.35 0.8-0.45 1-0.1 0.2-0.273 0.557-0.52 1.07-0.253 0.52-0.47 0.93-0.65 1.23-0.187 0.3-0.437 0.7-0.75 1.2-0.32 0.5-0.603 0.9-0.85 1.2-0.253 0.3-0.563 0.633-0.93 1-0.367 0.367-0.717 0.65-1.05 0.85v0c-0.833 0.5-1.617 0.75-2.35 0.75v0c-1.367 0-2.433-0.433-3.2-1.3v0c-1.533 1.133-2.95 1.7-4.25 1.7v0c-2.433 0-3.65-1.533-3.65-4.6v0c0-1.4 0.367-2.9 1.1-4.5v0c1-2.333 2.41-4.317 4.23-5.95 1.813-1.633 3.537-2.45 5.17-2.45zM42.1-15.95v0c-0.9 0-1.967 0.6-3.2 1.8-1.233 1.2-2.333 2.833-3.3 4.9v0c-1.167 2.4-1.75 4.367-1.75 5.9 0 1.533 0.583 2.3 1.75 2.3v0c0.833 0 1.767-0.45 2.8-1.35v0c-0.533-0.767-0.8-1.583-0.8-2.45v0c0.067-1.433 0.65-2.15 1.75-2.15v0c0.433 0 0.793 0.15 1.08 0.45 0.28 0.3 0.42 0.573 0.42 0.82 0 0.253-0.033 0.513-0.1 0.78v0c0.567-0.833 1.217-2.017 1.95-3.55v0c0.833-1.7 1.25-3.367 1.25-5 0-1.633-0.617-2.45-1.85-2.45zM65.1-1.8v0c-3.1 2.5-6.533 3.75-10.3 3.75v0c-4.3 0-6.95-1.2-7.95-3.6v0c-0.233-0.567-0.35-1.227-0.35-1.98 0-0.747 0.383-1.553 1.15-2.42v0c1.2-1.367 2.867-2.05 5-2.05v0c1.433 0 2.877 0.257 4.33 0.77 1.447 0.52 4.02 1.763 7.72 3.73v0c1.667-1.6 3.333-3.733 5-6.4 1.667-2.667 3.11-5.243 4.33-7.73 1.213-2.48 2.693-5.187 4.44-8.12 1.753-2.933 3.497-5.367 5.23-7.3v0c-3.733-2.233-7.7-3.35-11.9-3.35v0c-1.733 0-3.5 0.183-5.3 0.55v0c-5.167 1.1-9.1 3.35-11.8 6.75v0c-1.667 2.067-2.5 4.033-2.5 5.9v0c0 2.533 1.217 4.183 3.65 4.95v0c0.867 0.233 1.617 0.35 2.25 0.35 0.633 0 1.343-0.1 2.13-0.3 0.78-0.2 1.553-0.667 2.32-1.4v0c1.467-1.467 2.25-2.833 2.35-4.1v0c0.033-0.3 0.223-0.41 0.57-0.33 0.353 0.087 0.497 0.347 0.43 0.78v0c-0.333 2.433-1.617 4.283-3.85 5.55v0c-1.367 0.733-2.733 1.1-4.1 1.1v0l-2.6-0.45c-2.533-0.867-4.2-2.483-5-4.85v0c-0.333-0.9-0.5-1.8-0.5-2.7v0c0-1.833 0.683-3.65 2.05-5.45v0c2.933-3.933 8.133-6.45 15.6-7.55v0c1.467-0.2 2.917-0.3 4.35-0.3v0c4.633 0 9.05 1.1 13.25 3.3v0c1.3-1.5 2.5-2.643 3.6-3.43 1.1-0.78 1.983-1.17 2.65-1.17v0c0.367 0 0.583 0.073 0.65 0.22 0.067 0.153 0.057 0.27-0.03 0.35-0.08 0.087-0.187 0.13-0.32 0.13v0c-0.567 0-1.3 0.6-2.2 1.8-0.9 1.2-1.633 2.317-2.2 3.35v0c3.567 2.367 6.283 5.4 8.15 9.1v0c1.5 2.967 2.25 6.2 2.25 9.7v0c0 4.333-1.033 7.783-3.1 10.35v0c-1.7 2.1-3.767 3.583-6.2 4.45v0c-2.9 1.033-5.767 1.55-8.6 1.55v0c-5.733 0-10.617-1.167-14.65-3.5zM66.3-2.7v0c3.367 2 7.317 3 11.85 3v0c5.267 0 9.467-1.5 12.6-4.5v0c2.5-2.433 3.75-5.8 3.75-10.1v0c0-3.067-0.6-5.95-1.8-8.65v0c-1.5-3.433-3.717-6.3-6.65-8.6v0c-0.967 1.5-2.827 4.523-5.58 9.07-2.747 4.553-5.07 8.247-6.97 11.08-1.9 2.833-3.4 4.84-4.5 6.02-1.1 1.187-2 2.08-2.7 2.68zM63.4-2.6v0c-3.9-1.867-6.367-2.983-7.4-3.35-1.033-0.367-2.04-0.55-3.02-0.55-0.987 0-1.77 0.367-2.35 1.1-0.587 0.733-0.88 1.39-0.88 1.97 0 0.587 0.133 1.147 0.4 1.68v0c0.7 1.433 2.133 2.15 4.3 2.15v0c3.2 0 6.183-1 8.95-3zM109-17.5v0c2.433 0 3.65 1.533 3.65 4.6v0c0 1.4-0.367 2.9-1.1 4.5v0c-0.933 2.167-2.333 4.133-4.2 5.9v0c0.433 0.833 1.217 1.25 2.35 1.25v0c0.9 0 1.75-0.45 2.55-1.35v0c1-1.033 1.717-1.943 2.15-2.73 0.433-0.78 0.75-1.353 0.95-1.72 0.2-0.367 0.46-0.893 0.78-1.58 0.313-0.68 0.503-1.097 0.57-1.25 0.067-0.147 0.183-0.22 0.35-0.22v0c0.333-0.033 0.5 0.083 0.5 0.35v0c0 0.1-0.033 0.217-0.1 0.35v0l-0.3 0.7c-0.2 0.467-0.35 0.8-0.45 1-0.1 0.2-0.273 0.557-0.52 1.07-0.253 0.52-0.47 0.93-0.65 1.23-0.187 0.3-0.437 0.7-0.75 1.2-0.32 0.5-0.603 0.9-0.85 1.2-0.253 0.3-0.563 0.633-0.93 1-0.367 0.367-0.717 0.65-1.05 0.85v0c-0.833 0.5-1.617 0.75-2.35 0.75v0c-1.367 0-2.433-0.433-3.2-1.3v0c-1.533 1.133-2.95 1.7-4.25 1.7v0c-2.433 0-3.65-1.533-3.65-4.6v0c0-1.4 0.367-2.9 1.1-4.5v0c1-2.333 2.41-4.317 4.23-5.95 1.813-1.633 3.537-2.45 5.17-2.45zM109.55-15.95v0c-0.9 0-1.967 0.6-3.2 1.8-1.233 1.2-2.333 2.833-3.3 4.9v0c-1.167 2.4-1.75 4.367-1.75 5.9 0 1.533 0.583 2.3 1.75 2.3v0c0.833 0 1.767-0.45 2.8-1.35v0c-0.533-0.767-0.8-1.583-0.8-2.45v0c0.067-1.433 0.65-2.15 1.75-2.15v0c0.433 0 0.793 0.15 1.08 0.45 0.28 0.3 0.42 0.573 0.42 0.82 0 0.253-0.033 0.513-0.1 0.78v0c0.567-0.833 1.217-2.017 1.95-3.55v0c0.833-1.7 1.25-3.367 1.25-5 0-1.633-0.617-2.45-1.85-2.45zM158.8-33.95v0c0-1.167-0.533-2.267-1.6-3.3v0c-1.533-1.467-3.65-2.2-6.35-2.2v0c-2.367 0-4.983 0.517-7.85 1.55v0c-1.5 0.533-2.8 1.267-3.9 2.2v0c-1.7 1.467-2.55 2.933-2.55 4.4v0c0 1.967 1.25 3.733 3.75 5.3v0c0.933 0.567 2.81 1.49 5.63 2.77 2.813 1.287 4.87 2.33 6.17 3.13v0c1.967 1.2 3.327 2.483 4.08 3.85 0.747 1.367 1.12 2.633 1.12 3.8v0c0 1.667-0.55 3.367-1.65 5.1v0c-1.933 3.1-4.767 5.767-8.5 8v0c-4.3 2.6-9.483 3.9-15.55 3.9v0c-5.833 0-10.467-1.483-13.9-4.45v0c-2.667-2.267-4-5.183-4-8.75v0c0-2.267 0.827-4.767 2.48-7.5 1.647-2.733 3.67-4.667 6.07-5.8v0c0.5-0.2 0.877-0.267 1.13-0.2 0.247 0.067 0.037 0.383-0.63 0.95v0c-1.433 1.133-2.583 2.383-3.45 3.75v0c-1.867 2.933-2.8 6.117-2.8 9.55v0c0 2.267 0.633 4.25 1.9 5.95v0c2.267 3.033 6.2 4.75 11.8 5.15v0c0.633 0.067 1.577 0.1 2.83 0.1 1.247 0 2.947-0.223 5.1-0.67 2.147-0.453 4.22-1.197 6.22-2.23v0c4.3-2.267 7.083-5.2 8.35-8.8v0c0.4-1.067 0.6-2.1 0.6-3.1v0c0-2.267-1.017-4.267-3.05-6v0c-1.1-0.867-3.34-2.027-6.72-3.48-3.387-1.447-5.663-2.553-6.83-3.32v0c-2.567-1.733-3.85-3.783-3.85-6.15v0c0-2.067 1.15-4.083 3.45-6.05v0c3.3-2.8 7.967-4.2 14-4.2v0c2.833 0 5.143 0.423 6.93 1.27 1.78 0.853 2.87 2.13 3.27 3.83v0c0.067 0.333 0.1 0.667 0.1 1v0c0 1.3-0.6 2.467-1.8 3.5v0c-0.833 0.667-1.95 1.2-3.35 1.6v0c-0.6 0.167-0.933 0.1-1-0.2v0c-0.067-0.433 0.35-0.7 1.25-0.8v0c1.6-0.2 2.583-1 2.95-2.4v0c0.1-0.367 0.15-0.717 0.15-1.05zM168.55-19.45c-0.467 0.4-0.983 0.6-1.55 0.6-0.567 0-1.017-0.2-1.35-0.6-0.333-0.4-0.467-0.883-0.4-1.45v0c0.1-0.567 0.383-1.05 0.85-1.45 0.467-0.4 0.983-0.6 1.55-0.6 0.567 0 1.027 0.2 1.38 0.6 0.347 0.4 0.47 0.883 0.37 1.45-0.1 0.567-0.383 1.05-0.85 1.45zM163.65-1.1v0c0.633 0 1.3-0.317 2-0.95v0c1.233-1.233 2.8-3.75 4.7-7.55v0c0.233-0.5 0.467-0.65 0.7-0.45v0c0.067 0.067 0.1 0.173 0.1 0.32 0 0.153-0.133 0.52-0.4 1.1-0.267 0.587-0.507 1.113-0.72 1.58-0.22 0.467-0.637 1.223-1.25 2.27-0.62 1.053-1.18 1.863-1.68 2.43v0c-1.367 1.567-2.657 2.35-3.87 2.35-1.22 0-2.097-0.367-2.63-1.1-0.533-0.733-0.8-1.55-0.8-2.45 0-0.9 0.217-1.883 0.65-2.95v0l3.2-8.15c0.067-0.2 0.1-0.467 0.1-0.8 0-0.333-0.2-0.767-0.6-1.3v0l2.75-0.05c0.767 0 1.217 0.14 1.35 0.42 0.133 0.287 0.033 0.73-0.3 1.33v0l-4 9.35c-0.567 1.233-0.85 2.283-0.85 3.15v0c0 0.967 0.517 1.45 1.55 1.45z" data-fill-palette-color="primary" fill="#fce44d" opacity="1"></path></g></svg></g></svg></g></svg></g></svg></g><g transform="matrix(1,0,0,1,0,0.28155562112716837)"><svg viewBox="0 0 115.35089656400022 112.62224845087046" height="112.62224845087046" width="115.35089656400022"><g><svg xmlns="http://www.w3.org/2000/svg" data-name="Layer 1" viewBox="0.45541539788246155 1.7536001205444336 98.84458923339844 96.50640106201172" x="0" y="0" height="112.62224845087046" width="115.35089656400022" class="icon-icon-0" data-fill-palette-color="accent" id="icon-0"><path d="M71.28 6.32l-5.75 12a3.19 3.19 0 1 1-5.76-2.75l5.75-12a3.19 3.19 0 1 1 5.76 2.75Zm2.34 19.87l9.54-8.84a3.24 3.24 0 0 0-4.4-4.75l-9.54 8.84a3.24 3.24 0 0 0 4.4 4.75Zm5.1 9.87l12.44-4.82a3.19 3.19 0 1 0-2.31-6L76.41 30.1a3.19 3.19 0 0 0 2.31 6ZM1.62 76.64a3.44 3.44 0 1 1 5-4.68l0.77 0.83L38.76 13.51l-2-2.15a3.44 3.44 0 1 1 5-4.68L75.51 43.09l-1.14 0A30.3 30.3 0 0 0 44.15 71.77l-9.32 4.05 1.49 1.61a7.6 7.6 0 0 0 8.39 1.88 30 30 0 0 0 2.14 6.56 14.5 14.5 0 0 1-15.57-3.76l-3.13-3.38L17.31 83.44l1.18 1.28a3.44 3.44 0 0 1-5 4.68Zm16.09-6.16L48.77 31.81a1.94 1.94 0 0 0-0.09-2.54l-5.54-6a1.18 1.18 0 0 0-1.9 0.25L16.77 69.86A0.57 0.57 0 0 0 17.71 70.48ZM99.3 73.32A24.93 24.93 0 1 1 74.37 48.4 25 25 0 0 1 99.3 73.32ZM61.83 77.69a41.86 41.86 0 0 1 0-8.74h-6a18.43 18.43 0 0 0 0 8.74Zm3.84 12.57a27.55 27.55 0 0 1-3.13-8.17H57.46A19.17 19.17 0 0 0 65.67 90.26Zm0-33.88a19.17 19.17 0 0 0-8.21 8.17h5.08A27.56 27.56 0 0 1 65.67 56.38Zm6.5 25.71H67.05c1.14 4.47 3.07 7.7 5.12 9.08Zm0-13.14H66.25a38.08 38.08 0 0 0 0 8.74h5.92Zm0-13.48c-2.05 1.38-4 4.62-5.12 9.08h5.12Zm10.9 0.91a27.56 27.56 0 0 1 3.13 8.17h5.08A19.17 19.17 0 0 0 83.07 56.38Zm-6.5 8.17h5.12c-1.14-4.47-3.07-7.7-5.12-9.08Zm5.12 17.54H76.57v9.08C78.62 89.79 80.55 86.56 81.69 82.09Zm1-8.77A38.44 38.44 0 0 0 82.49 69H76.57v8.74h5.92A38.45 38.45 0 0 0 82.74 73.32Zm8.54 8.77H86.2a27.55 27.55 0 0 1-3.13 8.17A19.17 19.17 0 0 0 91.28 82.09ZM92.91 69h-6a41.86 41.86 0 0 1 0 8.74h6a18.43 18.43 0 0 0 0-8.74Z" fill="#f3a83c" data-fill-palette-color="accent"></path></svg></g></svg></g></svg></g></svg><rect width="395.52" height="78.5023092364365" fill="none" stroke="none" visibility="hidden"></rect></g></svg></g></svg>