<?xml version="1.0" encoding="utf-8"?>
<!-- Generator: Adobe Illustrator 21.1.0, SVG Export Plug-In . SVG Version: 6.00 Build 0)  -->
<svg version="1.0" id="Layer_1" xmlns="http://www.w3.org/2000/svg" xmlns:xlink="http://www.w3.org/1999/xlink" x="0px" y="0px"
	 viewBox="0 0 60 60" enable-background="new 0 0 60 60" xml:space="preserve">
<title>Tin uu tien</title>
<desc>Created with Sketch.</desc>
<g id="Page-1">
	<g id="Mobile-1" transform="translate(-330.000000, -655.000000)">
		<g id="Tin-uu-tien" transform="translate(330.000000, 654.996096)">
			<g id="Group-5-Copy-5">
				<g id="Group-8">
					<ellipse id="Oval" fill="#589F39" cx="29.9" cy="30" rx="29.8" ry="30"/>
				</g>
			</g>
			<g id="Page-1-Copy-2" transform="translate(14.177215, 10.000000)">
				<path id="Fill-1" fill="#FFFFFF" d="M8.9,31.7c-1-0.4-1.7-1.4-2.3-2.3c-0.4-0.5-0.7-1.1-1.1-1.4c0,0-0.1-0.1-0.1-0.1L2,36.5
					l4.1-0.3L8.6,40l3.5-8.7c-0.1,0-0.2,0.1-0.3,0.1c-0.7,0.2-1.3,0.5-2,0.5C9.5,31.9,9.2,31.8,8.9,31.7"/>
				<path id="Fill-3" fill="#FFFFFF" d="M24,28.1c-0.4,0.3-0.8,0.8-1.3,1.4c-0.7,0.9-1.5,1.9-2.7,2.3c-1.2,0.4-2.4,0-3.5-0.3
					c-0.1,0-0.2-0.1-0.4-0.1l4.2,8.7l2.9-3.8l5,0.3L24.2,28C24.1,28,24.1,28.1,24,28.1"/>
				<path id="Fill-5" fill="#FFFFFF" d="M20.7,15.2c-0.2,0.2-0.4,0.5-0.5,0.7c-0.1,0.3-0.1,0.6-0.1,0.9c0,0.3,0,0.6-0.2,0.8
					c-0.1,0.2-0.5,0.3-0.8,0.4c-0.3,0.1-0.6,0.2-0.9,0.4c-0.3,0.2-0.4,0.4-0.6,0.6c-0.2,0.3-0.4,0.5-0.7,0.6c-0.2,0.1-0.5,0-0.9-0.1
					c-0.3-0.1-0.6-0.2-1-0.2c-0.3,0-0.6,0.1-1,0.2c-0.3,0.1-0.7,0.2-0.9,0.1c-0.2-0.1-0.5-0.3-0.7-0.6c-0.2-0.2-0.4-0.5-0.6-0.6
					c-0.3-0.2-0.6-0.3-0.9-0.4c-0.3-0.1-0.7-0.2-0.8-0.4c-0.1-0.2-0.2-0.5-0.2-0.8c0-0.3,0-0.6-0.1-0.9c-0.1-0.3-0.3-0.5-0.5-0.7
					c-0.2-0.3-0.4-0.5-0.4-0.8c0-0.2,0.2-0.5,0.4-0.8c0.2-0.2,0.4-0.5,0.5-0.7c0.1-0.3,0.1-0.6,0.1-0.9c0-0.3,0-0.6,0.2-0.8
					c0.1-0.2,0.5-0.3,0.8-0.4c0.3-0.1,0.6-0.2,0.9-0.4c0.3-0.2,0.4-0.4,0.6-0.6c0.2-0.3,0.4-0.5,0.7-0.6c0.1,0,0.1,0,0.2,0
					c0.2,0,0.4,0.1,0.7,0.1c0.3,0.1,0.6,0.2,1,0.2c0.3,0,0.6-0.1,1-0.2c0.3-0.1,0.7-0.2,0.9-0.1c0.2,0.1,0.5,0.3,0.7,0.6
					c0.2,0.2,0.4,0.5,0.6,0.6c0.3,0.2,0.6,0.3,0.9,0.4c0.3,0.1,0.7,0.2,0.8,0.4c0.1,0.2,0.2,0.5,0.2,0.8c0,0.3,0,0.6,0.1,0.9
					c0.1,0.3,0.3,0.5,0.5,0.7c0.2,0.3,0.4,0.5,0.4,0.8C21.2,14.7,21,14.9,20.7,15.2 M29.3,11.9c-0.5-0.6-0.9-1.3-1.2-2
					c-0.3-0.8-0.3-1.6-0.3-2.3c0-0.9,0-1.7-0.4-2.2c-0.4-0.5-1.2-0.8-2.1-1.1c-0.8-0.2-1.5-0.5-2.2-1c-0.6-0.5-1.1-1.1-1.6-1.7
					c-0.6-0.7-1.1-1.4-1.7-1.6c-0.6-0.2-1.4,0.1-2.3,0.3c-0.8,0.2-1.6,0.5-2.4,0.5c-0.8,0-1.6-0.2-2.4-0.5C12.1,0.2,11.5,0,11,0
					c-0.2,0-0.3,0-0.5,0.1C9.9,0.3,9.3,0.9,8.8,1.7c-0.5,0.6-1,1.3-1.6,1.7C6.5,3.8,5.7,4.1,5,4.3C4.1,4.6,3.3,4.9,2.9,5.4
					C2.5,5.9,2.5,6.7,2.5,7.6c0,0.8,0,1.6-0.3,2.3c-0.2,0.7-0.7,1.4-1.2,2C0.5,12.6,0,13.3,0,14s0.5,1.4,1.1,2.1
					c0.5,0.6,0.9,1.3,1.2,2c0.3,0.8,0.3,1.6,0.3,2.3c0,0.9,0,1.7,0.4,2.2c0.4,0.5,1.2,0.8,2.1,1.1c0.8,0.3,1.5,0.5,2.2,1
					c0.6,0.5,1.1,1.1,1.6,1.7c0.6,0.7,1.1,1.4,1.7,1.6c0.6,0.2,1.4-0.1,2.3-0.3c0.8-0.2,1.6-0.5,2.4-0.5c0.8,0,1.6,0.2,2.4,0.5
					c0.9,0.3,1.7,0.5,2.3,0.3c0.6-0.2,1.2-0.9,1.7-1.6c0.5-0.6,1-1.2,1.6-1.7c0.7-0.5,1.4-0.7,2.2-1c0.9-0.3,1.7-0.6,2.1-1.1
					c0.4-0.5,0.4-1.3,0.4-2.2c0-0.8,0-1.6,0.3-2.3c0.2-0.7,0.7-1.4,1.2-2c0.5-0.7,1.1-1.4,1.1-2.1C30.4,13.3,29.9,12.6,29.3,11.9"/>
			</g>
		</g>
	</g>
</g>
</svg>
