<svg width="24" height="24" viewBox="0 0 24 24" fill="none" xmlns="http://www.w3.org/2000/svg">
<circle cx="12" cy="12" r="12" fill="#589F39"/>
<path fill-rule="evenodd" clip-rule="evenodd" d="M12.4137 6.00545C12.4022 5.99644 12.39 5.98812 12.3792 5.97841C12.1933 5.83697 11.985 5.7607 11.7591 5.76001C11.5333 5.7607 11.3257 5.83697 11.1573 5.96524C11.1255 5.9902 11.1147 5.99713 11.1059 6.00545C11.0843 6.02348 11.064 6.04289 11.0424 6.06508L6.53617 10.6848C6.14126 11.091 6.14126 11.749 6.53617 12.156C6.93242 12.5623 7.57414 12.5623 7.97107 12.156L10.7448 9.31196V17.2007C10.7448 17.7755 11.1986 18.24 11.7591 18.24C12.3197 18.24 12.7734 17.7755 12.7734 17.2007V9.31196L15.5472 12.156C15.9448 12.5623 16.5865 12.5623 16.9828 12.156C17.3791 11.749 17.3791 11.091 16.9828 10.6848L12.4773 6.06508C12.455 6.04289 12.434 6.02348 12.4137 6.00545Z" fill="white"/>
</svg>
