<?xml version="1.0" encoding="UTF-8"?>
<svg width="37px" height="37px" viewBox="0 0 37 37" version="1.1" xmlns="http://www.w3.org/2000/svg" xmlns:xlink="http://www.w3.org/1999/xlink">
    <!-- Generator: Sketch 49.2 (51160) - http://www.bohemiancoding.com/sketch -->
    <title>SuaTin</title>
    <desc>Created with Sketch.</desc>
    <defs></defs>
    <g id="Page-1" stroke="none" stroke-width="1" fill="none" fill-rule="evenodd">
        <g id="Mobile-Adview_Sua,-an-tin" transform="translate(-464.000000, -2526.000000)" fill="#589F39">
            <g id="SuaTin" transform="translate(464.000000, 2526.000000)">
                <g id="Layer_1">
                    <path d="M35.1911111,34.9444444 L10.5244444,34.9444444 L35.9311111,9.53777778 C36.3422222,9.12666667 36.3422222,8.46888889 35.9311111,8.14 L28.86,1.06888889 C28.4488889,0.657777778 27.7911111,0.657777778 27.4622222,1.06888889 L0.328888889,28.2022222 C0.164444444,28.3666667 -7.10542736e-15,28.6133333 -7.10542736e-15,28.9422222 L-7.10542736e-15,36.0133333 C-7.10542736e-15,36.5888889 0.411111111,37 0.986666667,37 L35.1911111,37 C35.7666667,37 36.1777778,36.5888889 36.1777778,36.0133333 C36.1777778,35.3555556 35.7666667,34.9444444 35.1911111,34.9444444 L35.1911111,34.9444444 Z M1.97333333,34.9444444 L1.97333333,29.3533333 L28.12,3.20666667 L33.7111111,8.79777778 L7.64666667,34.9444444 L1.97333333,34.9444444 L1.97333333,34.9444444 Z" id="Shape"></path>
                </g>
            </g>
        </g>
    </g>
</svg>