<svg xmlns="http://www.w3.org/2000/svg" xmlns:xlink="http://www.w3.org/1999/xlink" width="20" height="20" viewBox="0 0 20 20">
    <defs>
        <path id="e415919x4a" d="M0 0H19.102V19.354H0z"/>
    </defs>
    <g fill="none" fill-rule="evenodd">
        <g>
            <g>
                <g>
                    <g transform="translate(-696 -314) translate(142 256) translate(542 52) translate(12 6)">
                        <mask id="g7q6yf3cgb" fill="#fff">
                            <use xlink:href="#e415919x4a"/>
                        </mask>
                        <path fill="#589F39" fill-rule="nonzero" d="M17.27 6.018l2.137 1.235-6.25 10.825c-.39.675-1.219.936-1.906.624l-.126-.065-8.548-4.935c-.667-.385-.917-1.217-.599-1.911l.067-.129.741-1.288h-.312c-.276 0-.5-.223-.5-.5 0-.275.224-.5.5-.5h2.948c.276 0 .5.225.5.5 0 .277-.224.5-.5.5H3.926l-1.027 1.782c-.107.186-.083.411.044.566l.061.062.073.052 8.548 4.935c.21.12.472.068.625-.113l.052-.074 5.75-9.959-1.283-.74.5-.867zM8.382 9.375c.276 0 .5.224.5.5s-.224.5-.5.5H7.41c-.276 0-.5-.224-.5-.5s.224-.5.5-.5h.974zm-3.948-2c.276 0 .5.224.5.5s-.224.5-.5.5H.5c-.276 0-.5-.224-.5-.5s.224-.5.5-.5h3.935zM15.851.58c1.597.922 2.17 2.943 1.333 4.59l-.092.168-1.75 3.031-.854-.493 1-1.733-3.42-1.974.5-.866 3.42 1.974.25-.433c.635-1.1.35-2.476-.62-3.22l-.13-.093-.137-.085c-1.133-.655-2.576-.296-3.3.791l-.087.14-1.75 3.031-.855-.493 1.75-3.032C12.075.21 14.199-.373 15.85.581zM8.295.837L10.43 2.07l-.5.866-1.282-.74-1.835 3.178h.582c.276 0 .5.225.5.5 0 .277-.224.5-.5.5H2.474c-.276 0-.5-.223-.5-.5 0-.275.224-.5.5-.5h3.2L8.294.837z" mask="url(#g7q6yf3cgb)"/>
                    </g>
                </g>
            </g>
        </g>
    </g>
</svg>
