<svg width="40" height="40" viewBox="0 0 40 40" fill="none" xmlns="http://www.w3.org/2000/svg">
<circle cx="20" cy="20" r="19.5" fill="white" stroke="#E8E8E8"/>
<path d="M24.9089 13.9683C23.5549 13.9683 22.0213 14.3698 22.0213 14.3698C21.9988 14.3757 21.9776 14.3859 21.959 14.3999C21.9405 14.414 21.9248 14.4315 21.913 14.4516C21.9013 14.4717 21.8936 14.4939 21.8904 14.517C21.8872 14.54 21.8885 14.5635 21.8944 14.586C21.9062 14.6315 21.9356 14.6704 21.9761 14.6941C22.0166 14.7179 22.0648 14.7247 22.1103 14.7129C22.1103 14.7129 23.6259 14.3229 24.9089 14.3229C26.2111 14.3229 26.8349 14.4602 26.8349 14.4602C26.8576 14.4652 26.8812 14.4656 26.9041 14.4615C26.927 14.4573 26.9489 14.4487 26.9685 14.4361C26.9881 14.4236 27.005 14.4072 27.0183 14.3881C27.0316 14.3689 27.041 14.3474 27.0459 14.3246C27.0558 14.2787 27.0471 14.2307 27.0217 14.1912C26.9963 14.1517 26.9562 14.1239 26.9103 14.1139C26.9103 14.1139 26.2365 13.9683 24.9089 13.9683Z" fill="#599FFC"/>
<path d="M23.8138 14.3236C23.8138 14.3236 27.6907 14.1079 28.2344 14.972C28.7781 15.836 28.8787 19.3834 28.5333 20.0257C28.1879 20.6679 23.3296 21.6802 22.8845 20.421C22.4394 19.1618 21.7891 14.8185 23.8138 14.3236Z" fill="black"/>
<path d="M22.0658 14.5415C22.0658 14.5415 25.708 13.8571 26.2518 14.7211C26.7955 15.5852 26.6115 19.4844 26.2661 20.1266C25.9207 20.7689 22.0505 21.6802 21.6053 20.421C21.1602 19.1618 20.0411 15.0364 22.0658 14.5415H22.0658Z" fill="#FDE580"/>
<path d="M21.2798 20.6777C21.2798 20.6777 27.6157 20.0392 28.2288 20.3488C28.8418 20.6584 28.6828 21.1274 27.9843 21.203C27.2857 21.2786 22.0892 21.4059 21.3047 21.3225C20.5203 21.239 20.716 20.7198 21.2798 20.6777H21.2798Z" fill="#599FFC"/>
<path d="M22.0272 25.9248C21.9274 25.9248 20.668 26.0869 20.8925 28.5184C21.0433 30.1524 21.6829 30.4468 22.1003 30.6878C22.5176 30.9287 23.5747 30.8265 23.6239 30.8195C23.88 30.7827 22.9719 30.6402 23.1743 30.4137C23.91 29.5908 24.2841 27.1593 23.112 26.2739C21.9399 25.3886 22.0272 25.9248 22.0272 25.9248V25.9248Z" fill="black"/>
<path d="M23.3409 25.9248C23.2411 25.9248 21.9817 26.0869 22.2062 28.5184C22.4306 30.9499 23.7524 31.2367 24.4881 30.4137C25.2237 29.5908 25.5978 27.1593 24.4257 26.2739C23.2536 25.3886 23.3409 25.9248 23.3409 25.9248Z" fill="white"/>
<path d="M23.8284 26.9432C23.3434 27.0402 23.0701 27.384 23.1583 28.3892C23.2464 29.3943 23.749 29.7823 24.2251 29.3326C24.7012 28.883 24.6836 26.8109 23.8284 26.9432Z" fill="#FDE580"/>
<path d="M23.835 27.6731C23.6256 27.715 23.5076 27.8635 23.5457 28.2974C23.5837 28.7314 23.8007 28.8989 24.0063 28.7047C24.2118 28.5106 24.2042 27.616 23.835 27.6731Z" fill="black"/>
<path d="M19.0527 28.0696C19.0527 28.0696 19.4019 26.3239 19.2772 25.052C19.1525 23.7801 19.1275 23.3312 20.1251 23.3312C21.1226 23.3312 23.6664 22.7577 24.5641 23.2564C25.4619 23.7552 25.7861 27.2216 24.6888 27.8451C23.5915 28.4686 20.4742 28.4686 19.9755 28.4436C19.4767 28.4187 19.0527 28.0696 19.0527 28.0696Z" fill="#599FFC"/>
<path d="M20.5491 27.9947C20.5491 27.9947 20.3994 25.5258 22.1202 25.027C23.8409 24.5283 25.1627 24.628 25.836 26.0994C26.5094 27.5707 26.659 28.0196 25.3871 28.3189C24.1153 28.6182 20.574 29.0172 20.5491 27.9947Z" fill="#FDE580"/>
<path d="M19.6762 23.5307C19.6762 23.5307 24.1651 23.4809 24.5642 22.8823C24.9632 22.2838 24.5891 21.6105 24.0654 21.6105C23.5417 21.6105 20.1999 21.7601 19.5515 22.2339C18.9031 22.7078 18.7535 23.5307 19.6762 23.5307Z" fill="#FDE580"/>
<path d="M22.4912 20.5948C23.3671 20.5646 23.6018 22.5423 22.6438 22.9821C22.0489 23.2553 21.1468 23.3179 21.1468 23.3179C21.1468 23.3179 21.222 28.1195 20.6111 28.2442C20.0001 28.3688 19.3392 28.3688 19.1147 28.1818C18.933 28.0304 19.0903 24.4794 19.1823 23.299C19.2039 23.0215 18.3811 23.2532 18.3811 23.2532L17.5315 26.0994C17.5315 26.0994 16.7958 24.9398 16.8955 23.9049C16.9515 23.3246 16.8531 21.6454 17.4256 21.0657C17.8741 20.6116 18.9728 21.1795 19.2905 21.1631C20.0137 21.1257 22.4912 20.5948 22.4912 20.5948Z" fill="black"/>
<path d="M19.8734 15.0364C19.8734 15.0364 18.7379 15.5224 18.172 15.675C17.6061 15.8276 16.7436 15.2694 15.9853 15.8866C15.227 16.5038 14.6981 17.5618 14.4512 18.3906C14.3484 18.7357 13.8286 18.7694 13.3734 18.8986C12.7354 19.0797 12.1279 19.277 12.1279 19.277C12.1279 19.277 14.3454 21.0005 15.5798 20.9123C15.8791 20.8909 16.1783 20.7717 16.4648 20.6067C16.4611 20.6207 16.4574 20.6338 16.4538 20.6479C16.0548 22.1941 20.5593 21.5101 21.906 21.1859C23.1351 20.89 22.5255 20.0199 22.3997 18.7434C22.8594 17.6637 23.0617 16.6397 22.1221 15.7455C21.0287 14.7051 20.6937 15.3928 19.8733 15.0364H19.8734Z" fill="#FD6B6A"/>
<path d="M12.4939 23.0071L13.2732 23.0819L13.2233 23.6181C13.2233 23.6181 12.6373 23.244 12.4939 23.0071Z" fill="#599FFC"/>
<path d="M14.1554 18.5711C14.1554 18.5711 14.0713 17.5268 14.9379 17.3896C15.8045 17.2525 16.2097 17.4021 16.5464 17.9258C16.8831 18.4495 17.2135 18.4744 17.5813 18.4744C17.9492 18.4744 17.8494 18.5368 18.1799 18.6116C18.36 18.6524 18.6735 18.6672 18.9225 18.6996C19.1302 18.7266 19.293 18.7657 19.2959 18.8423C19.3021 19.0106 18.2422 18.8423 18.0115 18.8236C17.7809 18.8049 16.9766 18.8672 16.827 19.1041C16.6773 19.3411 16.6399 19.6216 16.5776 19.6403C16.5152 19.659 15.711 19.6528 15.5177 19.6403C15.3244 19.6278 15.4616 19.2787 15.2309 19.2662C15.0002 19.2538 14.5389 19.2725 14.3518 19.154C14.1648 19.0356 13.7502 19.0169 13.2639 19.0979C12.7776 19.179 11.9141 19.3286 11.6772 19.3286C11.4402 19.3286 10.8916 19.0854 11.7083 18.9982C12.0355 18.9632 12.9855 18.8298 13.285 18.7524C13.45 18.7097 13.6572 18.7315 13.7838 18.6928C14.001 18.6264 14.1554 18.5711 14.1554 18.5711V18.5711Z" fill="#FDE580"/>
<path d="M14.4688 17.9233C14.4688 17.9233 15.1389 17.5266 15.7209 17.7029C16.3028 17.8792 16.435 18.6904 16.1264 18.8844C15.8178 19.0784 14.6716 19.1048 14.5041 18.8227C14.3366 18.5405 14.3101 18.0644 14.4688 17.9233Z" fill="black"/>
<path d="M13.8164 20.4009C13.8164 20.4009 14.1073 19.5986 15.5533 19.5633C16.9993 19.5281 18.1103 19.625 18.1808 20.5332C18.2514 21.4414 17.5284 22.9667 17.6782 24.3863C17.8281 25.8058 18.4189 27.7103 19.4946 27.9131C20.5702 28.1159 21.0162 27.8349 20.9809 28.117C20.9457 28.3992 20.8335 28.495 20.0412 28.495C18.6567 28.495 16.1441 28.6537 14.1426 27.966C12.1411 27.2783 12.9258 23.6544 13.1551 22.9491C13.3843 22.2437 13.5342 21.0358 13.8164 20.4009Z" fill="#599FFC"/>
<path d="M12.7999 25.9248C12.7001 25.9248 11.4407 26.0869 11.6652 28.5184C11.816 30.1524 12.4556 30.4468 12.873 30.6878C13.2903 30.9287 14.3474 30.8265 14.3966 30.8195C14.6527 30.7827 13.7446 30.6402 13.947 30.4137C14.6827 29.5908 15.0568 27.1593 13.8847 26.2739C12.7126 25.3886 12.7999 25.9248 12.7999 25.9248V25.9248Z" fill="black"/>
<path d="M14.1136 25.9248C14.0138 25.9248 12.7544 26.0869 12.9789 28.5184C13.2033 30.9499 14.5251 31.2367 15.2608 30.4137C15.9964 29.5908 16.3705 27.1593 15.1984 26.2739C14.0263 25.3886 14.1136 25.9248 14.1136 25.9248Z" fill="white"/>
<path d="M12.6471 23.0347C13.1761 23.2728 13.1144 23.3522 13.0968 23.793C13.0791 24.2339 12.9292 24.5337 12.5942 24.4455C12.2591 24.3573 12.0915 22.714 12.6471 23.0347Z" fill="black"/>
<path d="M12.9509 23.7401C12.8547 23.7418 12.7629 23.7917 12.6953 23.8792C12.6277 23.9666 12.5898 24.0846 12.5898 24.2075C12.5899 24.2953 12.6092 24.3813 12.6458 24.4557C12.9445 24.5008 13.0801 24.2105 13.0968 23.7931C13.0971 23.7871 13.0974 23.7826 13.0976 23.7768C13.0527 23.7526 13.0045 23.7402 12.9557 23.7401C12.9541 23.7401 12.9525 23.7401 12.9509 23.7401H12.9509Z" fill="white"/>
<path d="M11.6386 25.8763C12.247 24.6596 12.4674 23.822 14.0456 24.1482C15.6239 24.4744 16.3205 26.1056 16.4439 27.0578C16.5673 28.0101 15.9854 27.7985 15.6063 27.0402C15.2271 26.2819 14.416 26.0439 13.4285 26.1673C12.4409 26.2907 11.3476 26.6875 11.6386 25.8763V25.8763Z" fill="#FDE580"/>
<path d="M14.6011 26.9432C14.1161 27.0402 13.8428 27.384 13.931 28.3892C14.0191 29.3943 14.5217 29.7823 14.9978 29.3326C15.474 28.883 15.4563 26.8109 14.6011 26.9432Z" fill="#FDE580"/>
<path d="M14.6078 27.6731C14.3984 27.715 14.2804 27.8635 14.3185 28.2974C14.3566 28.7314 14.5735 28.8989 14.7791 28.7047C14.9847 28.5106 14.977 27.616 14.6078 27.6731Z" fill="black"/>
<path d="M16.3379 23.496C16.8669 23.7341 16.8052 23.8135 16.7876 24.2543C16.7699 24.6952 16.62 24.995 16.285 24.9068C15.9499 24.8187 15.7823 23.1753 16.3379 23.496Z" fill="black"/>
<path d="M16.6417 24.2014C16.5455 24.2031 16.4537 24.253 16.3861 24.3405C16.3185 24.428 16.2806 24.5459 16.2806 24.6688C16.2807 24.7566 16.3 24.8426 16.3366 24.917C16.6353 24.9621 16.7709 24.6718 16.7876 24.2544C16.7879 24.2484 16.7882 24.2439 16.7884 24.2381C16.7435 24.2139 16.6953 24.2015 16.6465 24.2014C16.6449 24.2014 16.6433 24.2014 16.6417 24.2014H16.6417Z" fill="white"/>
<path d="M15.1969 23.5662C15.1213 23.5331 14.1831 23.2767 13.8252 23.3402C13.4672 23.4037 13.9545 23.0445 14.4652 23.1579C14.9758 23.2713 15.5309 23.5802 15.1969 23.5662Z" fill="black"/>
<path d="M15.3933 22.9916C15.3177 22.9585 14.3795 22.7021 14.0216 22.7656C13.6636 22.8291 14.1509 22.47 14.6616 22.5833C15.1722 22.6967 15.7273 23.0056 15.3933 22.9916Z" fill="black"/>
<path d="M15.5558 22.3802C15.4802 22.3472 14.542 22.0907 14.1841 22.1543C13.8261 22.2178 14.3134 21.8586 14.824 21.972C15.3347 22.0854 15.8897 22.3943 15.5558 22.3802Z" fill="black"/>
<path d="M19.8734 15.0364L18.7379 15.5224L18.7378 15.5225C18.7378 15.5226 18.7466 15.5588 18.759 15.6143C18.7616 15.6264 18.763 15.6327 18.7662 15.6468C18.7698 15.6643 18.7738 15.6822 18.7781 15.7023C18.7819 15.7209 18.7857 15.7386 18.7899 15.7591C18.7933 15.7763 18.7967 15.7941 18.8003 15.8124C18.8053 15.838 18.8102 15.8628 18.8151 15.8899C18.8166 15.8995 18.8184 15.9096 18.82 15.9194C18.8326 15.991 18.8443 16.0646 18.8528 16.1358C18.8528 16.1359 18.8529 16.136 18.8529 16.1362C18.8529 16.1363 18.8529 16.1365 18.8529 16.1367C18.8553 16.1566 18.8574 16.1761 18.8592 16.1954C18.8612 16.2147 18.8628 16.2337 18.8639 16.2521C18.9863 16.2171 19.1177 16.1642 19.2584 16.0882C19.6618 15.87 19.8976 15.6485 20.0361 15.4558C19.974 15.3114 19.9161 15.1656 19.8733 15.0364L19.8734 15.0364Z" fill="#FF4B3D"/>
<path d="M18.4277 16.0629C18.4277 16.0629 19.186 16.5743 19.4857 16.6449C19.7855 16.7154 20.3854 15.3966 20.1294 15.2165C19.8733 15.0364 17.2462 15.2429 16.9023 15.5515C16.5585 15.8601 16.4703 16.6008 16.6025 16.7771C16.7348 16.9535 17.7752 16.1246 17.7752 16.1246L18.4277 16.0629Z" fill="white"/>
<path d="M20.7789 13.6687C20.7329 12.2017 19.7305 10.2079 18.409 10.2494C17.0875 10.2909 16.1794 12.0651 16.2254 13.5321C16.2969 15.8102 17.5887 16.2185 18.2779 16.2198C19.3637 16.2218 20.8272 15.2066 20.7789 13.6687Z" fill="#FFB899"/>
<path d="M19.3654 14.6738C19.3546 14.7266 19.3334 14.7768 19.3031 14.8214C19.2729 14.866 19.2341 14.9042 19.1891 14.9338C19.1441 14.9635 19.0937 14.9839 19.0407 14.9941C18.9878 15.0043 18.9334 15.0039 18.8806 14.993C18.8278 14.9821 18.7777 14.961 18.7331 14.9307C18.6884 14.9004 18.6502 14.8617 18.6206 14.8167C18.591 14.7717 18.5705 14.7212 18.5603 14.6683C18.5502 14.6154 18.5505 14.5609 18.5614 14.5082C18.5723 14.4554 18.5935 14.4052 18.6237 14.3606C18.654 14.316 18.6927 14.2778 18.7377 14.2482C18.7828 14.2185 18.8332 14.198 18.8861 14.1879C18.9391 14.1777 18.9935 14.1781 19.0463 14.189C19.0991 14.1999 19.1492 14.221 19.1938 14.2513C19.2384 14.2815 19.2766 14.3203 19.3063 14.3653C19.3359 14.4103 19.3564 14.4607 19.3665 14.5137C19.3767 14.5666 19.3763 14.621 19.3654 14.6738Z" fill="white"/>
<path d="M16.2969 14.2511C16.3477 14.5383 16.4225 14.7853 16.5145 14.9972C16.6003 14.9371 16.6598 14.8465 16.6809 14.744C16.7029 14.6374 16.6816 14.5264 16.6218 14.4355C16.5619 14.3446 16.4684 14.2812 16.3618 14.2592C16.3617 14.2592 16.3617 14.2592 16.3617 14.2591L16.3617 14.2592C16.3403 14.2548 16.3187 14.2521 16.2969 14.2511L16.2969 14.2511Z" fill="white"/>
<path d="M17.2612 13.8179C17.2612 13.8179 17.0432 14.1803 16.8269 14.233C16.6107 14.2856 16.8395 14.634 17.1328 14.4757C17.426 14.3174 17.4059 13.6757 17.2613 13.8179H17.2612Z" fill="black"/>
<path d="M16.7524 11.3854C17.5063 11.9188 17.4666 11.9012 18.097 11.9276C18.7275 11.9541 18.3616 11.7557 18.3616 11.7557C18.3616 11.7557 18.6437 11.8527 18.9876 11.8218C19.3314 11.791 19.4813 11.4559 19.4813 11.4559C19.4813 11.4559 18.4101 10.4816 16.7524 11.3854Z" fill="black"/>
<path d="M20.8259 14.564C20.8259 14.564 22.3194 14.2913 21.8609 12.087C21.4024 9.88273 20.9089 9.16187 18.0398 9.16187C15.8605 9.16187 15.5621 12.2186 15.5445 13.0298C15.5269 13.841 16.2968 14.2511 16.2968 14.2511C16.2968 14.2511 15.9603 12.2959 16.4217 11.6974C16.883 11.0989 18.5788 10.8495 19.2272 11.1488C19.8756 11.448 19.8756 12.1712 19.9255 12.5952C19.9754 13.0191 20.0003 14.1663 20.2248 14.3533C20.4492 14.5404 20.8259 14.564 20.8259 14.564Z" fill="#FDE580"/>
<path d="M16.2968 14.251C16.2968 14.251 16.2146 12.2803 16.6907 11.6896C17.1669 11.0988 19.0361 11.1165 19.4417 11.5221C19.8473 11.9276 19.4946 13.982 19.9531 14.3964C20.4115 14.8108 20.8259 14.5639 20.8259 14.5639C20.8259 14.5639 20.0765 14.2289 20.1206 13.3736C20.1647 12.5184 20.3322 11.2311 19.4769 10.9489C18.6217 10.6668 16.6731 10.7109 16.3204 11.3545C15.9677 11.9982 15.9854 13.3031 15.9854 13.6734C15.9854 14.0437 16.2968 14.251 16.2968 14.251Z" fill="black"/>
<path d="M17.6782 18.1084C17.6782 18.1084 17.1845 18.7697 17.3344 19.1312C17.4842 19.4927 17.6782 18.9019 17.6782 18.9019C17.6782 18.9019 17.7135 19.1841 17.8281 19.2017C17.9427 19.2194 18.0662 19.1576 18.0662 19.1576C18.0662 19.1576 18.2072 19.2811 18.3307 19.2634C18.4541 19.2458 18.604 19.1136 18.604 19.1136C18.604 19.1136 18.7275 19.2282 18.8421 19.1929C18.9567 19.1576 19.089 18.913 19.089 18.913C19.089 18.913 18.8093 18.9239 18.7804 18.8226C18.7275 18.6374 19.0691 18.7234 19.0691 18.7234C19.0691 18.7234 19.2477 18.3641 18.8156 18.126C18.3836 17.888 17.8369 17.9056 17.6782 18.1084Z" fill="#FFB899"/>
<path d="M13.7838 18.6927L13.3559 18.7817C13.3559 18.7817 13.2288 18.9978 13.2415 19.0528C13.2542 19.1079 13.322 19.0571 13.3983 19.0528C13.4745 19.0486 13.5508 19.3452 13.2161 19.3664C12.8814 19.3875 12.8772 19.3113 12.8772 19.3113C12.8772 19.3113 12.8178 19.4808 12.6018 19.4935C12.3857 19.5062 12.3052 19.396 12.3052 19.396C12.3052 19.396 12.2162 19.4892 12.0849 19.4935C11.9535 19.4977 11.5064 19.1545 11.6358 18.6758C11.7205 18.3623 12.1103 18.1292 12.695 18.1801C13.2796 18.2309 13.7838 18.6927 13.7838 18.6927V18.6927Z" fill="#FFB899"/>
<path d="M22.3997 18.7434C22.3997 18.7434 21.9096 19.3388 21.3486 19.3893C20.7876 19.4398 19.1378 19.114 19.163 19.2145C19.1882 19.315 20.9134 19.7412 21.5498 19.766C22.1862 19.7908 22.3997 18.7434 22.3997 18.7434Z" fill="black"/>
<path d="M18.9969 18.0005C19.9205 17.8343 20.2877 17.9051 20.6073 17.7274C20.9269 17.5496 21.0451 16.9692 20.8794 17.1233C20.7137 17.2773 18.6179 17.9652 18.9969 18.0005Z" fill="black"/>
<path d="M27.2277 20.9521C25.3944 21.8993 23.6363 22.704 23.6113 22.9552C23.5863 23.2065 27.3536 21.3791 27.5209 21.1111C27.6882 20.8431 27.4119 20.8348 27.2277 20.9521Z" fill="#599FFC"/>
<path d="M24.2737 14.2913C23.738 14.3111 23.2006 14.3715 22.7874 14.4283C22.7135 14.76 22.622 15.2819 22.7702 15.3274C22.988 15.3943 23.1049 15.009 23.2892 15.1428C23.4735 15.2767 23.6411 15.3436 23.7415 15.2096C23.8419 15.0756 24.0262 15.3602 24.1769 15.2094C24.2671 15.1191 24.2786 14.6527 24.2737 14.2913V14.2913Z" fill="white"/>
<path d="M26.8765 14.1098C26.833 14.1088 26.7907 14.1239 26.7576 14.1522C26.722 14.1827 26.6998 14.2261 26.6961 14.2729C26.6924 14.3197 26.7074 14.3661 26.7378 14.4018C27.3944 15.1721 27.4997 16.6651 27.4053 17.9645C27.3109 19.2639 27.0385 20.3567 27.0385 20.3567C27.0329 20.3793 27.0318 20.4028 27.0353 20.4259C27.0387 20.4489 27.0467 20.471 27.0587 20.491C27.0707 20.5109 27.0865 20.5283 27.1053 20.5421C27.124 20.556 27.1453 20.566 27.1679 20.5716C27.2135 20.583 27.2617 20.5758 27.302 20.5516C27.3423 20.5274 27.3713 20.4882 27.3827 20.4426C27.3827 20.4426 27.662 19.3245 27.7589 17.9903C27.8558 16.6561 27.7921 15.0924 27.0076 14.172C26.9914 14.153 26.9713 14.1376 26.9487 14.1269C26.9261 14.1161 26.9015 14.1103 26.8765 14.1098Z" fill="#599FFC"/>
<path d="M18.5157 12.6469C18.065 12.5651 17.6314 12.8654 17.5496 13.316C17.545 13.3417 17.5418 13.3674 17.5397 13.3929C17.491 13.3676 17.4437 13.35 17.3991 13.3404C17.3209 13.3236 17.2503 13.328 17.1927 13.344C17.1688 13.3506 17.1475 13.3592 17.1278 13.3684C17.1165 13.0009 16.8949 12.6889 16.5745 12.6307C16.1957 12.562 15.8207 12.8729 15.7389 13.3236C15.6571 13.7742 15.8989 14.1972 16.2777 14.2659C16.6553 14.3344 17.0291 14.0254 17.1123 13.5768C17.1191 13.5728 17.1252 13.5678 17.1305 13.562C17.1305 13.562 17.167 13.5223 17.2369 13.503C17.3063 13.4838 17.4043 13.4818 17.5471 13.5926C17.6006 13.932 17.8622 14.2173 18.2188 14.282C18.6695 14.3638 19.103 14.0634 19.1848 13.6128C19.2666 13.1622 18.9663 12.7287 18.5157 12.6469L18.5157 12.6469ZM18.4861 12.8092C18.849 12.8751 19.0882 13.2205 19.0223 13.5833C18.9565 13.9462 18.6111 14.1855 18.2482 14.1197C17.8854 14.0538 17.646 13.7083 17.7119 13.3455C17.7778 12.9826 18.1232 12.7434 18.4861 12.8092ZM16.5449 12.7931C16.8499 12.8485 17.0426 13.1853 16.9767 13.5482C16.9108 13.9111 16.612 14.1589 16.307 14.1035C16.0021 14.0482 15.8094 13.7112 15.8753 13.3483C15.9411 12.9854 16.2399 12.7377 16.5449 12.7931Z" fill="black"/>
<path d="M20.8928 11.9704C20.8928 11.9704 20.4912 12.674 20.6169 12.8247C20.7426 12.9753 21.0188 12.7323 20.9604 13.2683C20.9021 13.8042 21.2953 13.0755 21.3286 12.7657C21.362 12.4558 20.8178 12.7073 20.9684 12.4812C21.119 12.255 21.0601 11.6103 20.8928 11.9704Z" fill="black"/>
<path d="M22.6893 27.4613C22.6893 27.4613 24.9166 27.3011 25.1929 27.1251C25.4691 26.9492 24.4978 27.0501 23.8698 27.1342C23.2419 27.2182 22.2706 27.4364 22.6893 27.4613V27.4613Z" fill="black"/>
<path d="M22.718 26.9104C22.718 26.9104 23.7956 26.8862 23.908 26.7085C24.0205 26.5308 22.1377 26.8811 22.718 26.9104Z" fill="black"/>
<path d="M15.9345 18.4645C15.7355 18.3076 15.4383 18.1418 15.1756 18.2697C14.7315 18.486 15.0769 18.8337 15.5375 18.7786C15.6697 18.7627 15.7776 18.7476 15.8641 18.7341C16.0789 18.7005 16.0719 18.5728 15.9345 18.4645Z" fill="white"/>
</svg>
