<svg width="40" height="40" viewBox="0 0 40 40" fill="none" xmlns="http://www.w3.org/2000/svg">
<circle cx="20" cy="20" r="19.5" fill="white" stroke="#E8E8E8"/>
<path d="M30.8202 25.406V14.9918C30.8202 14.444 30.3762 14 29.8284 14H9.99183C9.44403 14 9 14.444 9 14.9918V25.406C9 25.9538 9.44403 26.3978 9.99183 26.3978H29.8284C30.3761 26.3978 30.8202 25.9538 30.8202 25.406Z" fill="#69D03C"/>
<path d="M10.4877 22.9264V17.4713C10.4877 17.1975 10.7097 16.9754 10.9836 16.9754C11.5314 16.9754 11.9754 16.5314 11.9754 15.9836C11.9754 15.7097 12.1975 15.4877 12.4713 15.4877H27.3487C27.6226 15.4877 27.8446 15.7097 27.8446 15.9836C27.8446 16.5314 28.2887 16.9754 28.8365 16.9754C29.1103 16.9754 29.3324 17.1975 29.3324 17.4713V22.9264C29.3324 23.2002 29.1103 23.4223 28.8365 23.4223C28.2887 23.4223 27.8446 23.8663 27.8446 24.4141C27.8446 24.688 27.6226 24.91 27.3487 24.91H12.4713C12.1975 24.91 11.9754 24.688 11.9754 24.4141C11.9754 23.8663 11.5314 23.4223 10.9836 23.4223C10.7097 23.4223 10.4877 23.2002 10.4877 22.9264Z" fill="#54AF2D"/>
<path d="M20.0198 22.7594C21.4243 22.7594 22.5628 21.6208 22.5628 20.2164C22.5628 18.8119 21.4243 17.6733 20.0198 17.6733C18.6154 17.6733 17.4768 18.8119 17.4768 20.2164C17.4768 21.6208 18.6154 22.7594 20.0198 22.7594Z" fill="#6AD53A"/>
</svg>
