<svg width="40" height="40" viewBox="0 0 40 40" fill="none" xmlns="http://www.w3.org/2000/svg">
<circle cx="20" cy="20" r="19.5" fill="white" stroke="#E8E8E8"/>
<path d="M7.8335 13.4526V13.4526C7.83381 20.6537 9.70415 28.3215 16.3113 31.7796C17.278 32.2856 18.351 32.8198 19.548 33.4029C19.8275 33.5391 20.1585 33.5443 20.4424 33.4162C21.6735 32.8607 22.7732 32.3478 23.7625 31.8529C30.4458 28.51 32.1665 20.6364 32.1661 13.4526C32.1661 12.0298 31.1083 10.8349 29.6475 10.3649L20.6044 6.38614C20.2195 6.2168 19.7812 6.21679 19.3963 6.38612L10.3523 10.3649C8.88893 10.835 7.8335 12.0302 7.8335 13.4526Z" fill="url(#paint0_linear_9297_62584)" stroke="white"/>
<path d="M24.4548 21.7686C24.4548 23.7239 23.1273 24.9132 21.1577 25.1583V25.9437C21.1577 26.527 20.6854 26.9999 20.1015 26.9999C19.5177 26.9999 19.0447 26.5263 19.0447 25.9437V25.0708C18.0433 24.8823 17.0682 24.4921 16.2085 23.877C15.9383 23.6873 15.7487 23.3377 15.7487 22.9573C15.7487 22.3232 16.2553 21.8325 16.89 21.8325C17.207 21.8325 17.428 21.9422 17.5869 22.0536C18.4289 22.6717 19.3474 23.0521 20.4259 23.0521C21.425 23.0521 22.0282 22.6562 22.0282 22.0056V21.9736C22.0282 21.3561 21.6479 21.0396 19.7918 20.5626C17.5572 19.9925 16.1131 19.3733 16.1131 17.1684V17.1364C16.1131 15.4198 17.295 14.2071 19.0452 13.8844V13.0572C19.0452 12.4734 19.5182 11.9999 20.1021 11.9999C20.6859 11.9999 21.1584 12.4729 21.1584 13.0572V13.8918C22.029 14.0346 22.8206 14.3293 23.5193 14.7744C23.7901 14.9309 24.0597 15.2657 24.0597 15.7415C24.0597 16.3751 23.5519 16.8675 22.9178 16.8675C22.679 16.8675 22.4899 16.804 22.3003 16.6921C21.4903 16.2175 20.7294 15.9467 19.9667 15.9467C19.0316 15.9467 18.5404 16.3751 18.5404 16.9138V16.9464C18.5404 17.6752 19.0157 17.9135 20.9351 18.4053C23.1857 18.992 24.4556 19.8014 24.4556 21.735L24.4548 21.7686Z" fill="white"/>
<defs>
<linearGradient id="paint0_linear_9297_62584" x1="20.0001" y1="6.66663" x2="20.0001" y2="33.067" gradientUnits="userSpaceOnUse">
<stop stop-color="#72E240"/>
<stop offset="1" stop-color="#52B029"/>
</linearGradient>
</defs>
</svg>
