<svg width="17" height="16" viewBox="0 0 17 16" fill="none" xmlns="http://www.w3.org/2000/svg">
<mask id="mask0_3755_9005" style="mask-type:alpha" maskUnits="userSpaceOnUse" x="0" y="0" width="16" height="16">
<path fill-rule="evenodd" clip-rule="evenodd" d="M0.5 0.729492H15.742V16.0003H0.5V0.729492Z" fill="white"/>
</mask>
<g mask="url(#mask0_3755_9005)">
<path fill-rule="evenodd" clip-rule="evenodd" d="M15.5977 12.6728C15.4188 12.1376 14.8299 11.5795 14.2889 11.4324L12.2853 10.8842C12.1636 10.851 12.0304 10.8353 11.8924 10.8353C11.4142 10.8353 10.8786 11.0244 10.5703 11.3335L9.84555 12.0596C7.21258 11.3464 5.14675 9.2768 4.43593 6.63698L5.16065 5.91072C5.55793 5.5126 5.75713 4.7384 5.60888 4.19422L5.06286 2.1866C4.91511 1.64352 4.35761 1.05327 3.82402 0.875206L3.5954 0.798219C3.45555 0.75156 3.30015 0.729492 3.13961 0.729492C2.68768 0.729492 2.19591 0.904599 1.90237 1.19833L0.818221 2.28566C0.625025 2.47772 0.500759 3.02991 0.500759 3.0319C0.463309 6.48101 1.81244 9.80495 4.24771 12.2448C6.65047 14.653 9.91084 16.0003 13.3041 16.0003C13.3401 16.0003 13.3763 16.0001 13.4123 15.9998C13.4292 15.9998 13.9963 15.8778 14.1899 15.6846L15.2741 14.5984C15.6715 14.2003 15.851 13.4371 15.6734 12.9018L15.5977 12.6728Z" fill="white"/>
</g>
<path fill-rule="evenodd" clip-rule="evenodd" d="M9.91006 7.63366C9.92386 7.83839 10.0886 8.00018 10.2903 8.00018C10.4802 8.00018 10.6372 7.85673 10.6665 7.66911H10.6818C10.6177 6.70388 9.88478 5.92578 8.9596 5.8261C8.9352 5.82108 8.91001 5.81836 8.8842 5.81836C8.672 5.81836 8.5 5.99606 8.5 6.2153C8.5 6.43454 8.672 6.61224 8.8842 6.61224C8.88671 6.61224 8.88912 6.61192 8.89163 6.61185V6.61211C9.41562 6.67417 9.83479 7.09719 9.91006 7.63366Z" fill="white"/>
<path fill-rule="evenodd" clip-rule="evenodd" d="M12.8185 7.62482H12.821C12.8262 7.83293 12.9959 8.00009 13.2049 8.00009C13.4139 8.00009 13.5836 7.83293 13.5888 7.62482H13.5909C13.535 5.04965 11.4536 2.96516 8.88231 2.90918V2.91434C8.67095 2.9156 8.5 3.08747 8.5 3.29945C8.5 3.5122 8.67221 3.68467 8.88465 3.68467C8.89178 3.68467 8.89876 3.68401 8.9058 3.68359C11.0404 3.7513 12.7631 5.48399 12.8185 7.62482Z" fill="white"/>
<mask id="mask1_3755_9005" style="mask-type:alpha" maskUnits="userSpaceOnUse" x="8" y="0" width="9" height="8">
<path fill-rule="evenodd" clip-rule="evenodd" d="M8.52002 0.0117188H16.4859V7.99764H8.52002V0.0117188Z" fill="white"/>
</mask>
<g mask="url(#mask1_3755_9005)">
<path fill-rule="evenodd" clip-rule="evenodd" d="M14.2254 2.28321C12.8069 0.859359 10.9335 0.0581008 8.93432 0.0153742C8.91841 0.0132468 8.90226 0.0117188 8.88569 0.0117188C8.68372 0.0117188 8.52002 0.176063 8.52002 0.37876C8.52002 0.581487 8.68372 0.745801 8.88569 0.745801C8.8933 0.745801 8.90077 0.745142 8.90829 0.744693C12.6571 0.820198 15.6916 3.87089 15.7586 7.63572H15.7601C15.7606 7.83566 15.9222 7.99767 16.1215 7.99767C16.3209 7.99767 16.4825 7.83566 16.483 7.63572H16.4859C16.4536 5.61343 15.6538 3.71692 14.2254 2.28321Z" fill="white"/>
</g>
</svg>
