<?xml version="1.0" encoding="utf-8"?>
<!-- Generator: Adobe Illustrator 19.2.1, SVG Export Plug-In . SVG Version: 6.00 Build 0)  -->
<svg version="1.1" id="Layer_1" xmlns="http://www.w3.org/2000/svg" xmlns:xlink="http://www.w3.org/1999/xlink" x="0px" y="0px"
	 viewBox="271.6 394.9 52 52" style="enable-background:new 271.6 394.9 52 52;" xml:space="preserve">
<style type="text/css">
	.st0{fill:#589F39;}
	.st1{fill:#FFFFFF;}
</style>
<g>
	<g>
		<path class="st0" d="M297.6,444.9c-13.2,0-24-10.8-24-24s10.8-24,24-24s24,10.8,24,24S310.9,444.9,297.6,444.9z"/>
		<path class="st1" d="M297.6,397.9c12.7,0,23,10.3,23,23s-10.3,23-23,23s-23-10.3-23-23S285,397.9,297.6,397.9 M297.6,395.9
			c-13.8,0-25,11.2-25,25s11.2,25,25,25s25-11.2,25-25S311.4,395.9,297.6,395.9L297.6,395.9z"/>
	</g>
	<path class="st1" d="M307.9,411.2c-0.4-0.4-1.1-0.4-1.5,0l-12.9,12.7c-0.4,0.4-1.1,0.4-1.5,0l-3.2-3.1c-0.4-0.4-1.1-0.4-1.5,0
		l-2,1.9c-0.4,0.4-0.4,1,0,1.4l6.6,6.5c0.4,0.4,1.1,0.4,1.5,0l16.3-16.1c0.4-0.4,0.4-1,0-1.4L307.9,411.2z"/>
</g>
</svg>
